#!OML:ASF I:\Actors\actors\Patient Classification 2\Patient 1\Session 1\actor1.ASF
:FULLY-SPECIFIED
:DEGREES
421
root -1.32196 17.6467 5.52243 -7.64723 -2.12972 -9.08696
lowerback 14.9811 0.789446 2.06583
upperback 2.55801 1.46324 1.47745
thorax -5.66984 0.689311 0.105588
lowerneck 2.32912 -13.7476 -17.9523
upperneck 17.6235 -20.8136 13.8963
head 8.46192 -10.4341 5.58047
rclavicle 2.73329e-015 1.35174e-014
rhumerus -33.3568 -13.3298 -74.9338
rradius 131.605
rwrist -41.9415
rhand -17.0872 -39.1789
rfingers 7.12502
rthumb 9.15119 -68.9603
lclavicle 2.73329e-015 1.35174e-014
lhumerus -52.4656 -14.0204 105.754
lradius 103.099
lwrist 21.4037
lhand -8.71645 -14.9129
lfingers 7.12502
lthumb 17.2194 14.3442
rfemur 28.2901 -6.24665 25.0159
rtibia -22.8757
rfoot -2.16941 -12.3162
rtoes 0.322138
lfemur 33.6621 -1.23712 -5.6682
ltibia -36.3153
lfoot 11.5994 17.7207
ltoes -19.7575
422
root -1.30746 17.6677 5.53387 -7.5417 -2.52641 -8.99577
lowerback 14.9484 0.777859 1.94792
upperback 2.48274 1.42621 1.42294
thorax -5.73367 0.671885 0.12181
lowerneck 2.09935 -13.748 -17.9067
upperneck 16.7862 -20.7177 14.0881
head 8.21912 -10.371 5.63849
rclavicle -1.00883e-014 -1.74931e-014
rhumerus -33.374 -13.1753 -75.1359
rradius 131.45
rwrist -42.1059
rhand -17.3299 -39.4951
rfingers 7.12502
rthumb 8.91705 -69.2867
lclavicle -1.00883e-014 -1.74931e-014
lhumerus -52.9173 -14.1833 105.747
lradius 102.855
lwrist 21.4433
lhand -8.69481 -14.7704
lfingers 7.12502
lthumb 17.2402 14.4848
rfemur 27.8851 -5.96302 24.8832
rtibia -22.2598
rfoot -2.43927 -12.0636
rtoes 0.501475
lfemur 33.4915 -1.43991 -5.93558
ltibia -35.8353
lfoot 11.1946 18.2686
ltoes -19.5813
423
root -1.31031 17.6929 5.56192 -7.54909 -2.34881 -8.97709
lowerback 14.7625 0.623062 1.62757
upperback 2.4616 1.16813 1.44873
thorax -5.66383 0.552377 0.382403
lowerneck 1.83207 -13.7314 -17.8215
upperneck 15.8917 -20.5878 14.2956
head 7.95788 -10.2878 5.69959
rclavicle 5.41688e-015 7.95139e-016
rhumerus -33.5048 -13.1544 -75.3594
rradius 131.273
rwrist -42.2096
rhand -17.4067 -39.477
rfingers 7.12502
rthumb 8.84288 -69.2717
lclavicle 5.41688e-015 7.95139e-016
lhumerus -53.3566 -14.3834 105.729
lradius 102.638
lwrist 21.5837
lhand -8.57193 -14.4699
lfingers 7.12502
lthumb 17.3585 14.7749
rfemur 27.6331 -5.79437 24.9298
rtibia -21.4668
rfoot -3.21194 -12.0446
rtoes 0.800522
lfemur 33.2472 -2.07101 -6.09974
ltibia -35.2029
lfoot 10.6827 18.6593
ltoes -19.6548
424
root -1.30149 17.721 5.58358 -7.46798 -2.50916 -8.89979
lowerback 14.6052 0.577675 1.39448
upperback 2.40738 1.0694 1.45714
thorax -5.63986 0.508496 0.543403
lowerneck 1.39371 -13.7287 -17.6288
upperneck 14.9839 -20.424 14.3618
head 7.69152 -10.1817 5.69205
rclavicle 2.93207e-015 -7.95139e-015
rhumerus -33.6713 -13.2418 -75.4972
rradius 131.132
rwrist -42.294
rhand -17.1531 -39.273
rfingers 7.12502
rthumb 9.08765 -69.0572
lclavicle 2.93207e-015 -7.95139e-015
lhumerus -53.6941 -14.5498 105.761
lradius 102.428
lwrist 21.7678
lhand -8.40063 -14.2683
lfingers 7.12502
lthumb 17.5233 14.9619
rfemur 27.1458 -5.42727 24.8896
rtibia -20.5223
rfoot -3.85526 -11.9012
rtoes 1.4262
lfemur 32.9812 -2.5834 -6.39274
ltibia -34.5227
lfoot 10.0018 19.3246
ltoes -19.3866
425
root -1.28569 17.746 5.59973 -7.34397 -2.82121 -8.88642
lowerback 14.4949 0.551774 1.36175
upperback 2.33139 1.02768 1.43839
thorax -5.66003 0.488218 0.550843
lowerneck 0.798009 -13.7207 -17.275
upperneck 14.1076 -20.2173 14.3036
head 7.4275 -10.0463 5.61797
rclavicle -2.48481e-015 1.19271e-014
rhumerus -33.708 -13.3946 -75.6118
rradius 131.017
rwrist -42.5407
rhand -17.0701 -39.7055
rfingers 7.12502
rthumb 9.16767 -69.4863
lclavicle -2.48481e-015 1.19271e-014
lhumerus -54.0297 -14.7083 105.749
lradius 102.318
lwrist 21.902
lhand -8.21258 -14.2186
lfingers 7.12502
lthumb 17.7043 14.9954
rfemur 26.5023 -5.04835 24.8825
rtibia -19.4403
rfoot -4.41615 -11.6008
rtoes 2.07076
lfemur 32.7246 -3.06909 -6.6448
ltibia -33.8696
lfoot 9.32691 20.0965
ltoes -18.9709
426
root -1.2684 17.7704 5.61412 -7.20685 -3.12006 -8.94181
lowerback 14.4172 0.498479 1.44831
upperback 2.23327 0.969347 1.41847
thorax -5.71943 0.457198 0.492383
lowerneck 0.424674 -13.6023 -16.9598
upperneck 13.0061 -19.9065 14.4861
head 7.06946 -9.86671 5.66388
rclavicle -2.71838e-014 -1.27222e-014
rhumerus -33.6005 -13.6588 -75.6374
rradius 130.829
rwrist -42.2891
rhand -17.0259 -42.1779
rfingers 7.12502
rthumb 9.21039 -71.9568
lclavicle -2.71838e-014 -1.27222e-014
lhumerus -54.361 -14.8533 105.693
lradius 102.296
lwrist 22.0116
lhand -7.97746 -14.2975
lfingers 7.12502
lthumb 17.9305 14.8959
rfemur 25.8369 -4.77554 24.9135
rtibia -18.3596
rfoot -4.89889 -11.2301
rtoes 2.50146
lfemur 32.4919 -3.51635 -6.80832
ltibia -33.3192
lfoot 8.7809 20.7894
ltoes -18.6274
427
root -1.25043 17.7924 5.62779 -7.07648 -3.3898 -9.00031
lowerback 14.2792 0.450651 1.55337
upperback 2.19591 0.918831 1.41034
thorax -5.68133 0.430352 0.43501
lowerneck 0.293489 -13.4052 -16.7618
upperneck 11.6138 -19.5345 14.9994
head 6.62021 -9.66508 5.86194
rclavicle -1.69464e-014 2.38542e-014
rhumerus -33.3189 -13.8098 -75.6645
rradius 130.754
rwrist -42.086
rhand -17.1635 -42.1794
rfingers 7.12502
rthumb 9.07755 -71.9641
lclavicle -1.69464e-014 2.38542e-014
lhumerus -54.5261 -15.0773 105.638
lradius 102.323
lwrist 22.208
lhand -7.79595 -14.4584
lfingers 7.12502
lthumb 18.1052 14.7189
rfemur 25.2007 -4.5384 24.9348
rtibia -17.3062
rfoot -5.37626 -10.8641
rtoes 3.0439
lfemur 32.3141 -3.83896 -6.93582
ltibia -32.9169
lfoot 8.32154 21.3021
ltoes -18.4906
428
root -1.23256 17.8058 5.63746 -6.97999 -3.60931 -9.03298
lowerback 14.1458 0.399226 1.64444
upperback 2.21418 0.859721 1.39839
thorax -5.58717 0.400014 0.383044
lowerneck -0.112038 -13.2605 -16.4396
upperneck 10.5175 -19.1936 15.2672
head 6.28321 -9.46973 5.93501
rclavicle -3.97569e-016 -3.18055e-015
rhumerus -32.8525 -13.9339 -75.5977
rradius 130.744
rwrist -41.8558
rhand -16.7769 -40.8572
rfingers 7.12502
rthumb 9.4506 -70.6253
lclavicle -3.97569e-016 -3.18055e-015
lhumerus -54.5394 -15.3555 105.553
lradius 102.388
lwrist 22.4331
lhand -7.77425 -14.6559
lfingers 7.12502
lthumb 18.126 14.5195
rfemur 24.611 -4.3767 24.9132
rtibia -16.2706
rfoot -5.8996 -10.4492
rtoes 3.38429
lfemur 32.2366 -4.11237 -7.07033
ltibia -32.7024
lfoot 7.97841 21.692
ltoes -18.3892
429
root -1.21577 17.8113 5.64107 -6.87449 -3.80693 -9.13471
lowerback 14.1348 0.327594 1.78323
upperback 2.17812 0.787329 1.41614
thorax -5.61797 0.361543 0.336872
lowerneck -0.867019 -13.1212 -15.8553
upperneck 9.91443 -18.8116 15.0379
head 6.07941 -9.24397 5.78896
rclavicle 3.8266e-015 -4.77083e-015
rhumerus -32.3473 -13.9863 -75.4374
rradius 130.822
rwrist -41.8224
rhand -16.341 -40.1352
rfingers 7.12502
rthumb 9.87113 -69.8838
lclavicle 3.8266e-015 -4.77083e-015
lhumerus -54.5013 -15.5529 105.443
lradius 102.392
lwrist 22.5152
lhand -7.84719 -15.0009
lfingers 7.12502
lthumb 18.0559 14.181
rfemur 24.0179 -4.35802 24.945
rtibia -15.2925
rfoot -6.35151 -9.95595
rtoes 3.32547
lfemur 32.2376 -4.25966 -7.07581
ltibia -32.7161
lfoot 7.83894 21.9727
ltoes -18.1555
430
root -1.19296 17.8102 5.63496 -6.7519 -3.8909 -9.45098
lowerback 14.2852 0.183051 2.22739
upperback 2.09564 0.674209 1.4769
thorax -5.78452 0.295945 0.170547
lowerneck -1.6107 -12.8809 -15.1963
upperneck 9.45242 -18.3107 14.7279
head 5.88827 -8.96234 5.6235
rclavicle 1.96797e-014 2.38542e-015
rhumerus -31.8211 -13.8947 -75.2846
rradius 131.011
rwrist -41.9285
rhand -16.4804 -39.9213
rfingers 7.12502
rthumb 9.73668 -69.6763
lclavicle 1.96797e-014 2.38542e-015
lhumerus -54.4171 -15.7556 105.308
lradius 102.382
lwrist 22.4548
lhand -7.90707 -15.3109
lfingers 7.12502
lthumb 17.9983 13.8763
rfemur 23.4404 -4.54999 25.1569
rtibia -14.4314
rfoot -6.64574 -9.43243
rtoes 4.05838
lfemur 32.2512 -4.3362 -6.82616
ltibia -32.9285
lfoot 7.96873 22.1173
ltoes -18.0556
431
root -1.15706 17.8026 5.61465 -6.69173 -3.70256 -9.84423
lowerback 14.6625 -0.0721511 2.9644
upperback 2.01044 0.471486 1.5216
thorax -6.07983 0.177613 -0.160326
lowerneck -2.20147 -12.5482 -14.5755
upperneck 9.01113 -17.7272 14.5197
head 5.68475 -8.64651 5.51601
rclavicle 7.45443e-016 -7.95139e-015
rhumerus -31.2226 -13.7879 -75.0517
rradius 131.154
rwrist -41.9358
rhand -16.7818 -39.8871
rfingers 7.12502
rthumb 9.44589 -69.6554
lclavicle 7.45443e-016 -7.95139e-015
lhumerus -54.2663 -16.063 105.199
lradius 102.457
lwrist 22.4046
lhand -7.97713 -15.2215
lfingers 7.12502
lthumb 17.9308 13.9719
rfemur 22.9624 -5.17275 25.3156
rtibia -13.6885
rfoot -6.73989 -8.80666
rtoes 4.39157
lfemur 32.2797 -4.59946 -6.56602
ltibia -33.2903
lfoot 8.33292 22.1665
ltoes -17.9729
432
root -1.14577 17.7955 5.61006 -6.66399 -3.96104 -10.1784
lowerback 14.768 -0.0843155 3.23745
upperback 2.01063 0.511779 1.65009
thorax -6.13572 0.191579 -0.186547
lowerneck -2.77219 -12.1177 -13.9412
upperneck 8.77103 -17.0499 14.3488
head 5.53424 -8.28245 5.42671
rclavicle -1.07841e-014 2.70347e-014
rhumerus -30.5829 -13.7351 -74.728
rradius 131.189
rwrist -42.0236
rhand -16.8929 -39.8411
rfingers 7.12502
rthumb 9.33867 -69.6142
lclavicle -1.07841e-014 2.70347e-014
lhumerus -54.0302 -16.3776 105.118
lradius 102.51
lwrist 22.3197
lhand -8.07022 -15.0731
lfingers 7.12502
lthumb 17.8413 14.1285
rfemur 22.584 -5.03806 25.6788
rtibia -13.0466
rfoot -7.02376 -8.50219
rtoes 3.54455
lfemur 32.5069 -4.32319 -6.18219
ltibia -33.7193
lfoot 8.81036 22.0231
ltoes -17.6333
